<?xml version="1.0" encoding="utf-8"?>
<!-- Generator: Adobe Illustrator 16.0.4, SVG Export Plug-In . SVG Version: 6.00 Build 0)  -->
<!DOCTYPE svg PUBLIC "-//W3C//DTD SVG 1.1//EN" "http://www.w3.org/Graphics/SVG/1.1/DTD/svg11.dtd">
<svg version="1.1" id="Layer_1" xmlns="http://www.w3.org/2000/svg" xmlns:xlink="http://www.w3.org/1999/xlink" x="0px" y="0px"
	 width="710.274px" height="176.712px" viewBox="0 0 710.274 176.712" enable-background="new 0 0 710.274 176.712"
	 xml:space="preserve">
<g>
	<rect x="241.961" y="31.898" fill="#AD016E" width="144.758" height="31.935"/>
	<rect x="248.731" y="41.26" transform="matrix(1 -0.0044 0.0044 1 -0.2195 1.3924)" fill="none" width="131.219" height="17.999"/>
	<text transform="matrix(1 0 0 1 257.2104 52.4404)" fill="#FFFFFF" font-family="'BookmanOldStyle-Bold'" font-size="16">DataCollector</text>
	<g>
		<rect x="241.961" y="129.231" fill="#AD016E" width="144.758" height="43.811"/>
		<rect x="251.84" y="136.136" fill="none" width="125" height="36"/>
		<text transform="matrix(1 0 0 1 265.5396 147.6074)"><tspan x="0" y="0" fill="#FFFFFF" font-family="'BookmanOldStyle-Bold'" font-size="16">Practice DB</tspan><tspan x="-5.602" y="19.2" fill="#FFFFFF" font-family="'BookmanOldStyle'" font-size="16">Azure Storage</tspan></text>
		<rect x="482.119" y="22.634" fill="#AD016E" width="15.272" height="50.463"/>
		<rect x="512.119" y="22.634" fill="#AD016E" width="15.272" height="50.463"/>
		<g>
			<g>
				<line fill="none" stroke="#000000" stroke-width="5" stroke-miterlimit="10" x1="527.391" y1="47.866" x2="542.2" y2="47.866"/>
				<g>
					<polygon points="552.791,47.866 537.867,53.964 541.408,47.866 537.867,41.77 					"/>
				</g>
			</g>
		</g>
	</g>
	<g>
		<g>
			
				<line fill="none" stroke="#000000" stroke-width="5" stroke-miterlimit="10" x1="386.719" y1="47.866" x2="471.528" y2="47.866"/>
			<g>
				<polygon points="482.119,47.866 467.195,53.964 470.736,47.866 467.195,41.77 				"/>
			</g>
		</g>
	</g>
	<g>
		<polygon fill="#AD016E" points="702.654,39.162 702.654,68.833 560.896,68.833 560.896,71.097 705.654,71.097 705.654,39.162 		
			"/>
		<polygon fill="#AD016E" points="698.548,35.898 698.548,64.833 556.791,64.833 556.791,67.833 701.548,67.833 701.548,35.898 		
			"/>
		<rect x="552.791" y="31.898" fill="#AD016E" width="144.758" height="31.935"/>
		<rect x="559.56" y="41.26" transform="matrix(1 -0.0044 0.0044 1 -0.2164 2.7688)" fill="none" width="131.218" height="17.999"/>
		<text transform="matrix(1 0 0 1 581.313 52.4404)" fill="#FFFFFF" font-family="'BookmanOldStyle-Bold'" font-size="16">Aggregatie</text>
	</g>
	<g>
		<g>
			<rect x="417.375" y="35.648" fill="#B9CE00" width="20" height="24.434"/>
		</g>
		<text transform="matrix(1 0 0 1 422.0952 52.2695)" fill="#FFFFFF" font-family="'BookmanOldStyle'" font-size="11">Id</text>
	</g>
	<g>
		<g>
			<line fill="none" stroke="#000000" stroke-width="5" stroke-miterlimit="10" x1="135.486" y1="47.865" x2="231.37" y2="47.865"/>
			<g>
				<polygon points="241.961,47.865 227.037,53.964 230.579,47.865 227.037,41.769 				"/>
			</g>
		</g>
	</g>
	<g>
		<path fill="#EE8635" d="M113.012,24.657c-1.798-10.339-9.479-19.476-23.056-19.476c-8.258,0-14.258,3.437-18.156,8.414
			c-3.902-5.001-9.97-8.414-18.252-8.414c-13.671,0-21.373,9.263-23.101,19.693c-1.159-0.152-2.337-0.276-3.599-0.276
			c-31.304,0-31.304,48.545,0,48.545h84.953C142.689,73.144,143.078,25.918,113.012,24.657z"/>
		<rect x="-4.514" y="31.533" fill="none" width="153" height="36"/>
		<text transform="matrix(1 0 0 1 40.4624 43.0054)"><tspan x="0" y="0" fill="#FFFFFF" font-family="'BookmanOldStyle-Bold'" font-size="16">MyLaps</tspan><tspan x="-4.957" y="19.2" fill="#FFFFFF" font-family="'BookmanOldStyle'" font-size="16">X2 Cloud</tspan></text>
	</g>
	<rect x="452.375" y="3.287" fill="none" width="114.334" height="14.607"/>
	<text transform="matrix(1 0 0 1 464.7368 14.7588)" font-family="'BookmanOldStyle-Bold'" font-size="16">Sevice Bus</text>
	<g>
		<g>
			<polyline fill="none" stroke="#000000" stroke-width="5" stroke-miterlimit="10" points="578.374,73.097 578.374,140.837 
				397.308,140.837 			"/>
			<g>
				<polygon points="386.718,140.837 401.642,134.739 398.1,140.837 401.642,146.934 				"/>
			</g>
		</g>
	</g>
	<g>
		<g>
			<polyline fill="none" stroke="#000000" stroke-width="5" stroke-miterlimit="10" points="386.719,160.504 598.374,160.504 
				598.374,83.688 			"/>
			<g>
				<polygon points="598.374,73.097 604.472,88.021 598.374,84.479 592.277,88.021 				"/>
			</g>
		</g>
	</g>
	<g>
		<g>
			<rect x="487.545" y="128.62" fill="#B9CE00" width="20.001" height="24.434"/>
		</g>
		<text transform="matrix(1 0 0 1 492.2661 145.2412)" fill="#FFFFFF" font-family="'BookmanOldStyle'" font-size="11">Id</text>
	</g>
	<g>
		<g>
			<rect x="514.708" y="148.287" fill="#EE8635" width="65.222" height="24.434"/>
		</g>
		<text transform="matrix(1 0 0 1 517.73 164.9082)" fill="#FFFFFF" font-family="'BookmanOldStyle'" font-size="11">Doorkomst</text>
	</g>
	<g>
		<g>
			<g>
				<rect x="152.268" y="35.648" fill="#EE8635" width="65.222" height="24.434"/>
			</g>
			<text transform="matrix(1 0 0 1 155.29 52.2695)" fill="#FFFFFF" font-family="'BookmanOldStyle'" font-size="11">Doorkomst</text>
		</g>
	</g>
	<rect x="411.208" y="65.84" fill="none" width="32.333" height="14.607"/>
	<text transform="matrix(1 0 0 1 419.3745 77.3115)" font-family="'BookmanOldStyle-Bold'" font-size="16">2.</text>
	<g>
		<g>
			<g>
				
					<line fill="none" stroke="#000000" stroke-width="5" stroke-miterlimit="10" x1="284.34" y1="63.833" x2="284.34" y2="118.642"/>
				<g>
					<polygon points="284.34,129.232 278.242,114.309 284.34,117.85 290.437,114.309 					"/>
				</g>
			</g>
		</g>
		<g>
			<g>
				<g>
					<rect x="251.729" y="84.097" fill="#EE8635" width="65.222" height="24.434"/>
				</g>
				<text transform="matrix(1 0 0 1 254.751 100.7178)" fill="#FFFFFF" font-family="'BookmanOldStyle'" font-size="11">Doorkomst</text>
			</g>
		</g>
	</g>
	<g>
		<g>
			<g>
				
					<line fill="none" stroke="#000000" stroke-width="5" stroke-miterlimit="10" x1="345.597" y1="129.232" x2="345.597" y2="74.424"/>
				<g>
					<polygon points="345.597,63.833 351.695,78.757 345.597,75.216 339.5,78.757 					"/>
				</g>
			</g>
		</g>
		<g>
			<g>
				<rect x="335.597" y="84.097" fill="#B9CE00" width="20" height="24.434"/>
			</g>
			<text transform="matrix(1 0 0 1 340.3174 100.7178)" fill="#FFFFFF" font-family="'BookmanOldStyle'" font-size="11">Id</text>
		</g>
	</g>
	<rect x="219.627" y="91.01" fill="none" width="32.333" height="14.607"/>
	<text transform="matrix(1 0 0 1 227.7939 102.4814)" font-family="'BookmanOldStyle-Bold'" font-size="16">1.</text>
	<rect x="519.755" y="116.801" fill="none" width="48.777" height="14.607"/>
	<text transform="matrix(1 0 0 1 525.2651 128.2725)" font-family="'BookmanOldStyle-Bold'" font-size="16">3...n</text>
</g>
</svg>
