<?xml version="1.0" encoding="utf-8"?>
<!-- Generator: Adobe Illustrator 16.0.4, SVG Export Plug-In . SVG Version: 6.00 Build 0)  -->
<!DOCTYPE svg PUBLIC "-//W3C//DTD SVG 1.1//EN" "http://www.w3.org/Graphics/SVG/1.1/DTD/svg11.dtd">
<svg version="1.1" id="Layer_1" xmlns="http://www.w3.org/2000/svg" xmlns:xlink="http://www.w3.org/1999/xlink" x="0px" y="0px"
	 width="534.667px" height="280px" viewBox="0 0 534.667 280" enable-background="new 0 0 534.667 280" xml:space="preserve">
<g>
	<path fill-rule="evenodd" clip-rule="evenodd" fill="#FFFFFF" d="M131.483,247.564h274.43c65.9,0,119.32-53.421,119.32-119.32
		c0-65.9-53.42-119.32-119.32-119.32h-274.43c-65.9,0-119.32,53.42-119.32,119.32C12.163,194.143,65.583,247.564,131.483,247.564z"
		/>
	
		<path fill="none" stroke="#000000" stroke-width="0.72" stroke-linecap="round" stroke-linejoin="round" stroke-miterlimit="10" d="
		M131.483,247.564h274.43c65.9,0,119.32-53.421,119.32-119.32c0-65.9-53.42-119.32-119.32-119.32h-274.43
		c-65.9,0-119.32,53.42-119.32,119.32C12.163,194.143,65.583,247.564,131.483,247.564z"/>
	<path fill-rule="evenodd" clip-rule="evenodd" fill="#FFFFFF" d="M131.403,211.704h274.581c46.97,0,85.04-38.08,85.04-85.04
		c0-46.97-38.07-85.04-85.04-85.04H131.403c-46.97,0-85.04,38.07-85.04,85.04C46.363,173.624,84.433,211.704,131.403,211.704z"/>
	
		<path fill="none" stroke="#000000" stroke-width="0.72" stroke-linecap="round" stroke-linejoin="round" stroke-miterlimit="10" d="
		M131.403,211.704h274.581c46.97,0,85.04-38.08,85.04-85.04c0-46.97-38.07-85.04-85.04-85.04H131.403
		c-46.97,0-85.04,38.07-85.04,85.04C46.363,173.624,84.433,211.704,131.403,211.704z"/>
	<rect x="128.383" y="207.879" fill-rule="evenodd" clip-rule="evenodd" fill="#66FF33" width="5.669" height="45.354"/>
	
		<rect x="128.383" y="207.879" fill="none" stroke="#000000" stroke-width="0.72" stroke-linecap="round" stroke-linejoin="round" stroke-miterlimit="10" width="5.669" height="45.354"/>
	<rect x="270.113" y="207.879" fill-rule="evenodd" clip-rule="evenodd" fill="#FFFF00" width="5.669" height="45.354"/>
	
		<rect x="270.113" y="207.879" fill="none" stroke="#000000" stroke-width="0.72" stroke-linecap="round" stroke-linejoin="round" stroke-miterlimit="10" width="5.669" height="45.354"/>
	<rect x="372.163" y="207.879" fill-rule="evenodd" clip-rule="evenodd" fill="#FFFF00" width="5.669" height="45.354"/>
	
		<rect x="372.163" y="207.879" fill="none" stroke="#000000" stroke-width="0.72" stroke-linecap="round" stroke-linejoin="round" stroke-miterlimit="10" width="5.669" height="45.354"/>
	<rect x="411.843" y="207.879" fill-rule="evenodd" clip-rule="evenodd" fill="#FFFF00" width="5.67" height="45.354"/>
	
		<rect x="411.843" y="207.879" fill="none" stroke="#000000" stroke-width="0.72" stroke-linecap="round" stroke-linejoin="round" stroke-miterlimit="10" width="5.67" height="45.354"/>
	<rect x="122.713" y="3.779" fill-rule="evenodd" clip-rule="evenodd" fill="#66FF66" width="5.669" height="45.354"/>
	
		<rect x="122.713" y="3.779" fill="none" stroke="#000000" stroke-width="0.72" stroke-linecap="round" stroke-linejoin="round" stroke-miterlimit="10" width="5.669" height="45.354"/>
	<rect x="406.173" y="3.784" fill-rule="evenodd" clip-rule="evenodd" fill="#F59D56" width="5.67" height="42.52"/>
	
		<rect x="406.173" y="3.784" fill="none" stroke="#000000" stroke-width="0.72" stroke-linecap="round" stroke-linejoin="round" stroke-miterlimit="10" width="5.67" height="42.52"/>
	<rect x="268.693" y="3.779" fill-rule="evenodd" clip-rule="evenodd" fill="#F59D56" width="5.669" height="45.354"/>
	
		<rect x="268.693" y="3.779" fill="none" stroke="#000000" stroke-width="0.72" stroke-linecap="round" stroke-linejoin="round" stroke-miterlimit="10" width="5.669" height="45.354"/>
	<rect x="3.653" y="121.424" fill-rule="evenodd" clip-rule="evenodd" fill="#66FF33" width="51.024" height="5.669"/>
	
		<rect x="3.653" y="121.424" fill="none" stroke="#000000" stroke-width="0.72" stroke-linecap="round" stroke-linejoin="round" stroke-miterlimit="10" width="51.024" height="5.669"/>
	<rect x="485.543" y="127.094" fill-rule="evenodd" clip-rule="evenodd" fill="#F59D56" width="45.354" height="5.669"/>
	
		<rect x="485.543" y="127.094" fill="none" stroke="#000000" stroke-width="0.72" stroke-linecap="round" stroke-linejoin="round" stroke-miterlimit="10" width="45.354" height="5.669"/>
	<text transform="matrix(1 0 0 1 124.7129 200.3638)" font-family="'ArialMT'" font-size="12">L</text>
	<text transform="matrix(1 0 0 1 131.3828 200.3638)" font-family="'ArialMT'" font-size="12">1</text>
	<text transform="matrix(1 0 0 1 266.5332 200.3638)" font-family="'ArialMT'" font-size="12">L</text>
	<text transform="matrix(1 0 0 1 273.2129 200.3638)" font-family="'ArialMT'" font-size="12">2</text>
	<text transform="matrix(1 0 0 1 368.6328 200.3638)" font-family="'ArialMT'" font-size="12">L</text>
	<text transform="matrix(1 0 0 1 375.3135 200.3638)" font-family="'ArialMT'" font-size="12">3</text>
	<text transform="matrix(1 0 0 1 408.333 200.4331)" font-family="'ArialMT'" font-size="12">L</text>
	<text transform="matrix(1 0 0 1 415.0029 200.4331)" font-family="'ArialMT'" font-size="12">4</text>
	<text transform="matrix(1 0 0 1 402.6631 61.5034)" font-family="'ArialMT'" font-size="12">L</text>
	<text transform="matrix(1 0 0 1 409.333 61.5034)" font-family="'ArialMT'" font-size="12">6</text>
	<text transform="matrix(1 0 0 1 264.4331 64.3335)" font-family="'ArialMT'" font-size="12">L</text>
	<text transform="matrix(1 0 0 1 271.1133 64.3335)" font-family="'ArialMT'" font-size="12">7</text>
	<text transform="matrix(1 0 0 1 119.0332 64.3335)" font-family="'ArialMT'" font-size="12">L</text>
	<text transform="matrix(1 0 0 1 125.7129 64.3335)" font-family="'ArialMT'" font-size="12">8</text>
	<text transform="matrix(1 0 0 1 121.5332 268.7036)"><tspan x="0" y="0" font-family="'ArialMT'" font-size="6">S</tspan><tspan x="4.02" y="0" font-family="'ArialMT'" font-size="6">T</tspan><tspan x="7.553" y="0" font-family="'ArialMT'" font-size="6">A</tspan><tspan x="11.573" y="0" font-family="'ArialMT'" font-size="6">R</tspan><tspan x="16.086" y="0" font-family="'ArialMT'" font-size="6">T</tspan><tspan x="19.619" y="0" font-family="'ArialMT'" font-size="6"> </tspan></text>
	<text transform="matrix(1 0 0 1 123.8828 275.9136)"><tspan x="0" y="0" font-family="'ArialMT'" font-size="6">5</tspan><tspan x="3.487" y="0" font-family="'ArialMT'" font-size="6">0</tspan><tspan x="6.488" y="0" font-family="'ArialMT'" font-size="6">0</tspan></text>
	<text transform="matrix(1 0 0 1 133.8828 275.9136)" font-family="'ArialMT'" font-size="6">m</text>
	<text transform="matrix(1 0 0 1 365.4629 268.7036)"><tspan x="0" y="0" font-family="'ArialMT'" font-size="6">F</tspan><tspan x="3.503" y="0" font-family="'ArialMT'" font-size="6">I</tspan><tspan x="5.494" y="0" font-family="'ArialMT'" font-size="6">N</tspan><tspan x="9.521" y="0" font-family="'ArialMT'" font-size="6">I</tspan><tspan x="11.512" y="0" font-family="'ArialMT'" font-size="6">S</tspan><tspan x="15.532" y="0" font-family="'ArialMT'" font-size="6">H</tspan><tspan x="19.559" y="0" font-family="'ArialMT'" font-size="6"> </tspan></text>
	<text transform="matrix(1 0 0 1 367.8027 275.9136)"><tspan x="0" y="0" font-family="'ArialMT'" font-size="6">5</tspan><tspan x="3.487" y="0" font-family="'ArialMT'" font-size="6">0</tspan><tspan x="6.488" y="0" font-family="'ArialMT'" font-size="6">0</tspan></text>
	<text transform="matrix(1 0 0 1 377.8027 275.9136)" font-family="'ArialMT'" font-size="6">m</text>
	<text transform="matrix(1 0 0 1 263.3628 268.7036)"><tspan x="0" y="0" font-family="'ArialMT'" font-size="6">F</tspan><tspan x="3.503" y="0" font-family="'ArialMT'" font-size="6">I</tspan><tspan x="5.494" y="0" font-family="'ArialMT'" font-size="6">N</tspan><tspan x="9.497" y="0" font-family="'ArialMT'" font-size="6">I</tspan><tspan x="11.488" y="0" font-family="'ArialMT'" font-size="6">S</tspan><tspan x="15.49" y="0" font-family="'ArialMT'" font-size="6">H</tspan><tspan x="19.487" y="0" font-family="'ArialMT'" font-size="6"> </tspan></text>
	<text transform="matrix(1 0 0 1 264.0332 275.9136)"><tspan x="0" y="0" font-family="'ArialMT'" font-size="6">1</tspan><tspan x="3.487" y="0" font-family="'ArialMT'" font-size="6">0</tspan><tspan x="6.488" y="0" font-family="'ArialMT'" font-size="6">0</tspan><tspan x="9.975" y="0" font-family="'ArialMT'" font-size="6">0</tspan></text>
	<text transform="matrix(1 0 0 1 277.3828 275.9136)" font-family="'ArialMT'" font-size="6">m</text>
	<text transform="matrix(1 0 0 1 50.0532 199.7036)" font-family="'ArialMT'" font-size="12.025">9</text>
	<text transform="matrix(1 0 0 1 197.5332 233.7534)" font-family="'ArialMT'" font-size="12.025">1</text>
	<text transform="matrix(1 0 0 1 319.5127 233.7534)" font-family="'ArialMT'" font-size="12.025">2</text>
	<text transform="matrix(1 0 0 1 393.2334 233.7534)" font-family="'ArialMT'" font-size="12.025">3</text>
	<text transform="matrix(1 0 0 1 478.333 202.5532)" font-family="'ArialMT'" font-size="12">4</text>
	<text transform="matrix(1 0 0 1 478.333 63.5635)" font-family="'ArialMT'" font-size="12">5</text>
	<text transform="matrix(1 0 0 1 330.833 29.5034)" font-family="'ArialMT'" font-size="12">6</text>
	<text transform="matrix(1 0 0 1 191.853 29.5034)" font-family="'ArialMT'" font-size="12">7</text>
	<text transform="matrix(1 0 0 1 50.0532 66.3833)" font-family="'ArialMT'" font-size="12">8</text>
	<path fill-rule="evenodd" clip-rule="evenodd" fill="#FFFFFF" d="M271.533,158.614v23.85V158.614z M129.793,158.614v23.85V158.614z
		"/>
	<path fill-rule="evenodd" clip-rule="evenodd" fill="#FFFFFF" d="M373.573,158.614v23.85V158.614z M271.533,158.614v23.85V158.614z
		"/>
	
		<path fill="none" stroke="#000000" stroke-width="0.5005" stroke-linecap="round" stroke-linejoin="round" stroke-miterlimit="10" stroke-dasharray="7.5075,4.5045,0,4.5045" d="
		M95.783,124.963h56.69 M124.133,153.314V96.613"/>
	
		<path fill="none" stroke="#000000" stroke-width="0.5005" stroke-linecap="round" stroke-linejoin="round" stroke-miterlimit="10" stroke-dasharray="7.5075,4.5045,0,4.5045" d="
		M384.913,124.963h56.7 M413.263,153.314V96.613"/>
	
		<path fill="none" stroke="#000000" stroke-width="0.5005" stroke-linecap="round" stroke-linejoin="round" stroke-miterlimit="10" stroke-dasharray="7.5075,4.5045,0,4.5045" d="
		M243.183,124.963h56.69 M271.533,153.314V96.613"/>
	<text transform="matrix(1 0 0 1 462.9629 134.4536)" font-family="'ArialMT'" font-size="12.025">L</text>
	<text transform="matrix(1 0 0 1 469.6533 134.4536)" font-family="'ArialMT'" font-size="12.025">5</text>
	<text transform="matrix(1 0 0 1 60.2129 128.8135)" font-family="'ArialMT'" font-size="12">L</text>
	<text transform="matrix(1 0 0 1 66.8828 128.8135)" font-family="'ArialMT'" font-size="12">9</text>
</g>
</svg>
