<?xml version="1.0" encoding="utf-8"?>
<!-- Generator: Adobe Illustrator 16.0.4, SVG Export Plug-In . SVG Version: 6.00 Build 0)  -->
<!DOCTYPE svg PUBLIC "-//W3C//DTD SVG 1.1//EN" "http://www.w3.org/Graphics/SVG/1.1/DTD/svg11.dtd">
<svg version="1.1" id="Layer_1" xmlns="http://www.w3.org/2000/svg" xmlns:xlink="http://www.w3.org/1999/xlink" x="0px" y="0px"
	 width="534.666px" height="280px" viewBox="0 0 534.666 280" enable-background="new 0 0 534.666 280" xml:space="preserve">
<path fill="#FFFFFF" d="M131.483,247.564h274.43c65.9,0,119.32-53.422,119.32-119.32c0-65.9-53.42-119.32-119.32-119.32h-274.43
	c-65.898,0-119.318,53.42-119.318,119.32C12.163,194.143,65.583,247.564,131.483,247.564z"/>
<path fill="none" stroke="#000000" stroke-width="0.72" stroke-linecap="round" stroke-linejoin="round" stroke-miterlimit="10" d="
	M131.483,247.564h274.43c65.9,0,119.32-53.422,119.32-119.32c0-65.9-53.42-119.32-119.32-119.32h-274.43
	c-65.898,0-119.318,53.42-119.318,119.32C12.163,194.143,65.583,247.564,131.483,247.564z"/>
<path fill="#FFFFFF" d="M131.403,211.704h274.581c46.97,0,85.04-38.08,85.04-85.04c0-46.97-38.07-85.04-85.04-85.04H131.403
	c-46.97,0-85.04,38.07-85.04,85.04C46.363,173.624,84.433,211.704,131.403,211.704z"/>
<path fill="none" stroke="#000000" stroke-width="0.72" stroke-linecap="round" stroke-linejoin="round" stroke-miterlimit="10" d="
	M131.403,211.704h274.581c46.97,0,85.04-38.08,85.04-85.04c0-46.97-38.07-85.04-85.04-85.04H131.403
	c-46.97,0-85.04,38.07-85.04,85.04C46.363,173.624,84.433,211.704,131.403,211.704z"/>
<rect x="270.113" y="207.879" fill="#FFA948" width="5.671" height="45.354"/>
<rect x="270.113" y="207.879" fill="none" stroke="#000000" stroke-width="0.72" stroke-linecap="round" stroke-linejoin="round" stroke-miterlimit="10" width="5.671" height="45.354"/>
<rect x="372.163" y="207.879" fill="#008DCB" width="5.669" height="45.354"/>
<rect x="372.163" y="207.879" fill="none" stroke="#000000" stroke-width="0.72" stroke-linecap="round" stroke-linejoin="round" stroke-miterlimit="10" width="5.669" height="45.354"/>
<text transform="matrix(1 0 0 1 365.4622 268.7031)" font-family="'ArialMT'" font-size="6">F</text>
<text transform="matrix(1 0 0 1 368.9661 268.7031)" font-family="'ArialMT'" font-size="6">I</text>
<text transform="matrix(1 0 0 1 370.9563 268.7031)" font-family="'ArialMT'" font-size="6">N</text>
<text transform="matrix(1 0 0 1 374.9836 268.7031)" font-family="'ArialMT'" font-size="6">I</text>
<text transform="matrix(1 0 0 1 376.9749 268.7031)" font-family="'ArialMT'" font-size="6">S</text>
<text transform="matrix(1 0 0 1 380.9954 268.7031)" font-family="'ArialMT'" font-size="6">H</text>
<text transform="matrix(1 0 0 1 385.0208 268.7031)" font-family="'ArialMT'" font-size="6"> </text>
<text transform="matrix(1 0 0 1 367.802 275.9141)" font-family="'ArialMT'" font-size="6">5</text>
<text transform="matrix(1 0 0 1 371.2893 275.9141)" font-family="'ArialMT'" font-size="6">0</text>
<text transform="matrix(1 0 0 1 374.2903 275.9141)" font-family="'ArialMT'" font-size="6">0</text>
<text transform="matrix(1 0 0 1 377.802 275.9141)" font-family="'ArialMT'" font-size="6">m</text>
<text transform="matrix(1 0 0 1 263.3621 268.7031)" font-family="'ArialMT'" font-size="6">F</text>
<text transform="matrix(1 0 0 1 266.8655 268.7031)" font-family="'ArialMT'" font-size="6">I</text>
<text transform="matrix(1 0 0 1 268.8567 268.7031)" font-family="'ArialMT'" font-size="6">N</text>
<text transform="matrix(1 0 0 1 272.8586 268.7031)" font-family="'ArialMT'" font-size="6">I</text>
<text transform="matrix(1 0 0 1 274.8508 268.7031)" font-family="'ArialMT'" font-size="6">S</text>
<text transform="matrix(1 0 0 1 278.8528 268.7031)" font-family="'ArialMT'" font-size="6">H</text>
<text transform="matrix(1 0 0 1 282.8489 268.7031)" font-family="'ArialMT'" font-size="6"> </text>
<text transform="matrix(1 0 0 1 264.033 275.9141)" font-family="'ArialMT'" font-size="6">1</text>
<text transform="matrix(1 0 0 1 267.5198 275.9141)" font-family="'ArialMT'" font-size="6">0</text>
<text transform="matrix(1 0 0 1 270.5208 275.9141)" font-family="'ArialMT'" font-size="6">0</text>
<text transform="matrix(1 0 0 1 274.0081 275.9141)" font-family="'ArialMT'" font-size="6">0</text>
<text transform="matrix(1 0 0 1 277.3821 275.9141)" font-family="'ArialMT'" font-size="6">m</text>
</svg>
