<?xml version="1.0" encoding="utf-8"?>
<!-- Generator: Adobe Illustrator 16.0.4, SVG Export Plug-In . SVG Version: 6.00 Build 0)  -->
<!DOCTYPE svg PUBLIC "-//W3C//DTD SVG 1.1//EN" "http://www.w3.org/Graphics/SVG/1.1/DTD/svg11.dtd">
<svg version="1.1" id="logo" xmlns="http://www.w3.org/2000/svg" xmlns:xlink="http://www.w3.org/1999/xlink" x="0px" y="0px"
	 width="141.533px" height="39.286px" viewBox="0 0 141.533 39.286" enable-background="new 0 0 141.533 39.286"
	 xml:space="preserve">
<g>
	<g>
		<g>
			<path fill="#009FE3" d="M37.739,19.059c0,0.222,0,11.994,0,11.994c-0.045,4.576-3.422,7.309-9.034,7.309s-8.988-2.733-9.034-7.31
				c0,0,0-11.771,0-11.993c0.212,0,4.863,0,5.075,0c0,0.222,0,11.729,0,11.729c0,2.522,1.517,4.089,3.958,4.089
				s3.958-1.567,3.958-4.089c0,0,0-11.507,0-11.729C32.876,19.059,37.527,19.059,37.739,19.059z"/>
		</g>
		<path d="M63.713,30.153l-0.001,0.114h6.987v-0.113c0-2.62-1.244-4.063-3.503-4.063C64.932,26.091,63.73,28.134,63.713,30.153z
			 M61.315,31.532c0-3.406,1.593-7.045,6.064-7.045c3.545,0,5.748,2.364,5.748,6.17c0,0,0,0.947,0,1.134c-0.221,0-9.471,0-9.471,0
			v0.113c0,3.087,1.29,4.857,3.54,4.857c2.009,0,3.001-0.82,3.319-2.703c0.148,0,2.151,0,2.414,0
			c-0.423,2.73-2.501,4.307-5.76,4.307C62.076,38.364,61.315,34.083,61.315,31.532z"/>
		<g>
			<path d="M78.701,19.059c0,0.222,0,18.687,0,18.909c-0.197,0-2.098,0-2.294,0c0-0.222,0-18.687,0-18.909
				C76.603,19.059,78.504,19.059,78.701,19.059z"/>
		</g>
		<g>
			<path d="M16.952,19.06c0,0.206,0,3.28,0,3.486c-0.218,0-5.938,0-5.938,0s0,15.198,0,15.421c-0.212,0-4.863,0-5.075,0
				c0-0.223,0-15.421,0-15.421s-5.721,0-5.938,0c0-0.206,0-3.28,0-3.486C0.222,19.06,16.73,19.06,16.952,19.06z"/>
		</g>
		<g>
			<path d="M5.408,15.309l-0.034-0.161c-0.973-4.436,1.374-7.96,6.975-10.475c1.196-0.536,2.553-0.882,3.865-1.217
				c2.3-0.587,4.678-1.195,6.327-2.844c0,0,0.367-0.612,0.367-0.612c0.152,0.022,0.144,0.329-0.028,0.792
				c-0.37,0.994-1.776,1.977-3.264,3.017c-1.865,1.304-3.792,2.651-3.793,4.171c-0.002,0.729,0.222,1.264,0.665,1.59
				c0.5,0.368,1.268,0.429,2.104,0.166l0,0c0.581-0.182,1.289-0.608,1.895-1.139c0,0,0.114-0.106,0.114-0.106
				c0.073-0.069,0.225-0.213,0.27-0.203c0.04,0.03,0.045,0.18-0.058,0.421c-1.026,3.565-4.749,8.632-9.08,8.909
				c-0.004,0-0.591-0.003-0.591-0.003c-0.005-0.052,0.255-0.16,0.485-0.256l0.77-0.408c1.746-1.357,2.255-2.73,2.63-4.945
				c0.042-0.251,0.116-0.842-0.107-0.92c-0.209-0.073-0.333,0.152-0.521,0.492c-0.525,0.922-1.707,1.812-2.639,1.754
				c-0.5-0.032-0.872-0.331-1.103-0.89c-0.333-0.803,0.206-1.585,0.827-2.49c0.487-0.707,1.038-1.508,1.25-2.452l0.053-0.692
				l-0.16-0.013c-0.153-0.014-0.364,0.205-0.625,0.648c-0.562,0.952-1.556,1.696-2.609,2.484c-1.771,1.325-3.604,2.696-3.572,5.226
				c0.003,0.454,0.009,1.214-0.106,1.279C5.663,16.382,5.551,16.001,5.408,15.309z"/>
		</g>
		<g>
			<path d="M106.463,19.059c1.598,0,2.443,0.819,2.443,2.369c0,1.548-0.845,2.367-2.443,2.367c0,0-1.038,0-1.227,0
				c0-0.211,0-4.524,0-4.735C105.425,19.059,106.463,19.059,106.463,19.059z M106.267,19.246h-0.81v4.361h1.117
				c1.359,0,2.077-0.753,2.077-2.18c0-0.705-0.194-1.25-0.576-1.622C107.668,19.411,107.06,19.222,106.267,19.246z"/>
			<path d="M109.715,22.182c0-0.826,0.447-1.714,1.427-1.714c1.152,0,1.426,0.897,1.449,1.698c-0.225,0-2.657,0-2.657,0l0.002,0.115
				c0.016,0.917,0.505,1.464,1.309,1.464c0.499,0,0.902-0.344,1.052-0.825c0.042,0,0.093,0,0.183,0
				c-0.221,0.637-0.639,0.977-1.366,0.977C110.082,23.897,109.715,22.973,109.715,22.182z M109.95,21.891l-0.012,0.123h2.451
				l-0.008-0.121c-0.057-0.797-0.518-1.273-1.232-1.273C110.35,20.62,110.003,21.304,109.95,21.891z"/>
		</g>
		<g>
			<g>
				<path d="M113.756,19.058c0,0.211,0,4.524,0,4.735c-0.074,0-0.113,0-0.187,0c0-0.211,0-4.524,0-4.735
					C113.644,19.058,113.682,19.058,113.756,19.058z"/>
			</g>
			<g>
				<path d="M115.187,20.57h0.113v-0.848c0-0.537,0.202-0.747,0.718-0.747l0.256,0.046c0,0,0.005,0.06,0.011,0.12
					c-0.064-0.007-0.129-0.013-0.129-0.013l-0.526,0.166c-0.154,0.16-0.156,0.402-0.143,0.728v0.549c0,0,0.618,0,0.784,0
					c0,0.064,0,0.088,0,0.152c-0.166,0-0.784,0-0.784,0s0,2.861,0,3.071c-0.074,0-0.112,0-0.187,0c0-0.21,0-3.071,0-3.071
					s-0.536,0-0.694,0c0-0.064,0-0.088,0-0.152C114.764,20.57,115.187,20.57,115.187,20.57z"/>
			</g>
		</g>
		<g>
			<g>
				<path d="M117.652,19.715c0,0.227,0,0.854,0,0.854s0.618,0,0.784,0c0,0.064,0,0.088,0,0.152c-0.166,0-0.784,0-0.784,0v2.422
					c0-0.002,0.149,0.442,0.149,0.442l0.437,0.158c0,0,0.13-0.015,0.245-0.029c0,0.062,0,0.082,0,0.135
					c-0.104,0.015-0.306,0.045-0.306,0.045c-0.268,0-0.451-0.054-0.561-0.164c-0.154-0.154-0.152-0.42-0.151-0.676v-2.333
					c0,0-0.529,0-0.687,0c0-0.064,0-0.088,0-0.152c0.158,0,0.687,0,0.687,0s0-0.654,0-0.774
					C117.518,19.773,117.564,19.753,117.652,19.715z"/>
			</g>
		</g>
		<g>
			<g>
				<path d="M108.638,26.145c0,0.21,0,3.103,0,3.103c-0.014,1.086-0.649,1.736-1.701,1.736c-1.05,0-1.686-0.649-1.701-1.737
					c0,0,0-2.891,0-3.101c0.083,0,0.138,0,0.221,0c0,0.21,0,3.096,0,3.096c0.037,0.961,0.604,1.556,1.479,1.556
					c0.876,0,1.444-0.595,1.48-1.552c0,0,0-2.89,0-3.1C108.5,26.145,108.554,26.145,108.638,26.145z"/>
			</g>
			<g>
				<path d="M110.154,28.122c0.21-0.372,0.549-0.568,0.981-0.568c0.912,0,1.103,0.697,1.103,1.282c0,0,0,1.841,0,2.044
					c-0.074,0-0.113,0-0.187,0c0-0.204,0-2.113,0-2.113c0-0.655-0.391-1.061-1.02-1.061c-0.761,0-1.102,0.653-1.102,1.301
					c0,0,0,1.672,0,1.874c-0.074,0-0.113,0-0.187,0c0-0.208,0-2.561,0-2.561s-0.026-0.654-0.027-0.663c0.08,0,0.122,0,0.197,0
					c0.006,0.134,0.034,0.795,0.034,0.795L110.154,28.122z"/>
			</g>
		</g>
		<g>
			<g>
				<path d="M113.612,26.145c0,0.099,0,0.19,0,0.29c-0.092,0-0.164,0-0.256,0c0-0.099,0-0.19,0-0.29
					C113.448,26.145,113.52,26.145,113.612,26.145z"/>
				<path d="M113.578,27.657c0,0.205,0,3.019,0,3.223c-0.074,0-0.113,0-0.187,0c0-0.205,0-3.019,0-3.223
					C113.465,27.657,113.503,27.657,113.578,27.657z"/>
			</g>
			<g>
				<path d="M117.42,27.657c-0.109,0.276-1.227,3.092-1.278,3.223c-0.086,0-0.229,0-0.314,0c-0.052-0.129-1.202-2.945-1.316-3.223
					c0.098,0,0.151,0,0.209,0c0.055,0.133,1.266,3.066,1.266,3.066s1.168-2.931,1.223-3.066
					C117.269,27.657,117.322,27.657,117.42,27.657z"/>
			</g>
		</g>
		<g>
			<path d="M117.966,29.269c0-0.826,0.446-1.714,1.426-1.714c1.153,0,1.427,0.897,1.45,1.698c-0.225,0-2.657,0-2.657,0l0.002,0.115
				c0.016,0.917,0.505,1.464,1.309,1.464c0.499,0,0.902-0.344,1.052-0.825c0.042,0,0.092,0,0.183,0
				c-0.221,0.637-0.639,0.977-1.366,0.977C118.333,30.983,117.966,30.06,117.966,29.269z M118.202,28.977L118.19,29.1h2.451
				l-0.009-0.121c-0.057-0.797-0.518-1.272-1.233-1.272C118.651,27.706,118.259,28.344,118.202,28.977z"/>
			<g>
				<path d="M122.95,27.554c0.001,0,0.194,0.003,0.295,0.004c0,0.065,0,0.091,0,0.161c-0.041-0.004-0.142-0.013-0.142-0.013
					c-0.649,0-1.045,0.452-1.061,1.209c0,0,0,1.763,0,1.965c-0.074,0-0.112,0-0.186,0c0-0.208,0-2.561,0-2.561l-0.023-0.601
					c0,0-0.002-0.034-0.004-0.062c0.08,0,0.122,0,0.197,0c0.005,0.134,0.017,0.4,0.017,0.4l0.233,0.033
					C122.384,27.781,122.655,27.565,122.95,27.554z M121.856,28.32L121.856,28.32L121.856,28.32z"/>
			</g>
			<g>
				<path d="M126.074,30.031c0-0.55-0.542-0.67-1.066-0.786l-0.114-0.025c-0.568-0.137-1.005-0.284-1.005-0.817
					c0-0.787,0.882-0.849,1.152-0.849c0.657,0,0.988,0.262,1.085,0.729c-0.104,0-0.172,0-0.219,0
					c-0.093-0.354-0.394-0.577-0.907-0.577c-0.541,0-0.89,0.263-0.89,0.669c0,0.444,0.39,0.543,0.93,0.68l0.746,0.216
					c0.314,0.108,0.509,0.376,0.509,0.698c0,0.7-0.671,1.014-1.337,1.014c-0.504,0-1.07-0.229-1.156-0.819c0.107,0,0.191,0,0.246,0
					c0.087,0.415,0.417,0.667,1.013,0.667C125.565,30.831,126.074,30.583,126.074,30.031z"/>
			</g>
			<g>
				<path d="M127.54,26.145c0,0.099,0,0.19,0,0.29c-0.092,0-0.164,0-0.256,0c0-0.099,0-0.19,0-0.29
					C127.375,26.145,127.448,26.145,127.54,26.145z"/>
				<path d="M127.505,27.657c0,0.205,0,3.019,0,3.223c-0.074,0-0.112,0-0.187,0c0-0.205,0-3.019,0-3.223
					C127.393,27.657,127.431,27.657,127.505,27.657z"/>
			</g>
		</g>
		<g>
			<g>
				<path d="M129.324,26.802c0,0.227,0,0.855,0,0.855s0.618,0,0.784,0c0,0.064,0,0.088,0,0.152c-0.166,0-0.784,0-0.784,0v2.422
					c0-0.002,0.149,0.442,0.149,0.442l0.437,0.158c0,0,0.13-0.015,0.245-0.029c0,0.062,0,0.082,0,0.135
					c-0.104,0.016-0.306,0.046-0.306,0.046c-0.268,0-0.451-0.054-0.561-0.164c-0.154-0.155-0.152-0.42-0.151-0.677v-2.333
					c0,0-0.529,0-0.688,0c0-0.064,0-0.088,0-0.152c0.158,0,0.688,0,0.688,0s0-0.655,0-0.774
					C129.188,26.86,129.235,26.84,129.324,26.802z"/>
			</g>
			<g>
				<path d="M133.817,27.657c-0.114,0.286-1.76,4.408-1.813,4.542c-0.059,0-0.112,0-0.21,0c0.096-0.241,0.461-1.165,0.461-1.165
					c0-0.074-1.087-2.707-1.365-3.377c0.115,0,0.19,0,0.256,0c0.054,0.135,1.238,3.076,1.238,3.076s1.176-2.94,1.23-3.076
					C133.672,27.657,133.723,27.657,133.817,27.657z"/>
			</g>
		</g>
		<path d="M136.371,29.269c0-0.853,0.462-1.714,1.495-1.714s1.495,0.861,1.495,1.714c0,0.854-0.462,1.715-1.495,1.715
			S136.371,30.122,136.371,29.269z M136.592,29.269c0,0.752,0.398,1.562,1.274,1.562c0.875,0,1.273-0.81,1.273-1.562
			s-0.398-1.562-1.273-1.562C136.99,27.706,136.592,28.516,136.592,29.269z"/>
		<g>
			<g>
				<path d="M140.435,27.657h0.113v-0.849c0-0.537,0.202-0.747,0.719-0.747l0.256,0.046c0,0,0.005,0.06,0.011,0.12
					c-0.064-0.007-0.129-0.013-0.129-0.013l-0.527,0.166c-0.153,0.16-0.156,0.402-0.143,0.727v0.549c0,0,0.618,0,0.783,0
					c0,0.064,0,0.088,0,0.152c-0.166,0-0.783,0-0.783,0s0,2.861,0,3.071c-0.074,0-0.113,0-0.187,0c0-0.21,0-3.071,0-3.071
					s-0.535,0-0.694,0c0-0.064,0-0.088,0-0.152C140.012,27.657,140.435,27.657,140.435,27.657z"/>
			</g>
		</g>
		<g>
			<g>
				<path d="M108.638,33.231c0,0.074,0,0.113,0,0.187c-0.195,0-1.574,0-1.574,0s0,4.333,0,4.548c-0.085,0-0.142,0-0.227,0
					c0-0.215,0-4.548,0-4.548s-1.406,0-1.602,0c0-0.074,0-0.113,0-0.187C105.441,33.231,108.433,33.231,108.638,33.231z"/>
			</g>
			<path d="M108.376,36.355c0-0.826,0.447-1.715,1.427-1.715c1.152,0,1.426,0.897,1.449,1.698c-0.225,0-2.658,0-2.658,0l0.002,0.115
				c0.017,0.917,0.506,1.464,1.309,1.464c0.499,0,0.903-0.344,1.053-0.825c0.042,0,0.092,0,0.182,0
				c-0.221,0.637-0.639,0.977-1.366,0.977C108.743,38.07,108.376,37.146,108.376,36.355z M108.612,36.063l-0.011,0.123h2.451
				l-0.009-0.121c-0.057-0.797-0.518-1.272-1.232-1.272C109.011,34.793,108.665,35.477,108.612,36.063z"/>
		</g>
		<g>
			<g>
				<path d="M112.094,36.355c0-0.826,0.446-1.715,1.426-1.715c0.639,0,1.061,0.385,1.151,0.936c-0.1,0-0.161,0-0.214,0
					c-0.083-0.489-0.415-0.783-1.006-0.783c-0.659,0-1.137,0.654-1.137,1.556c0,0.909,0.478,1.569,1.137,1.569
					c0.544,0,0.912-0.331,1.003-0.804c0.051,0,0.112,0,0.212,0c-0.137,0.618-0.502,0.956-1.175,0.956
					C112.46,38.07,112.094,37.146,112.094,36.355z"/>
			</g>
			<g>
				<path d="M115.819,33.231c0,0.202,0,2.353,0,2.353l0.225-0.375c0.209-0.372,0.548-0.568,0.98-0.568
					c0.912,0,1.103,0.697,1.103,1.282c0,0,0,1.841,0,2.044c-0.074,0-0.113,0-0.187,0c0-0.204,0-2.113,0-2.113
					c0-0.654-0.39-1.061-1.019-1.061c-0.761,0-1.102,0.653-1.102,1.301c0,0,0,1.672,0,1.873c-0.074,0-0.112,0-0.187,0
					c0-0.211,0-4.524,0-4.735C115.707,33.231,115.745,33.231,115.819,33.231z"/>
			</g>
		</g>
		<g>
			<g>
				<path d="M119.582,35.209c0.21-0.372,0.549-0.568,0.98-0.568c0.912,0,1.104,0.697,1.104,1.282c0,0,0,1.841,0,2.044
					c-0.074,0-0.113,0-0.187,0c0-0.204,0-2.113,0-2.113c0-0.654-0.39-1.061-1.019-1.061c-0.762,0-1.103,0.653-1.103,1.301
					c0,0,0,1.672,0,1.873c-0.074,0-0.112,0-0.187,0c0-0.208,0-2.56,0-2.56s-0.027-0.66-0.027-0.663c0.08,0,0.123,0,0.198,0
					c0.005,0.134,0.032,0.797,0.032,0.797L119.582,35.209z"/>
			</g>
			<path d="M122.653,36.355c0-0.854,0.462-1.715,1.495-1.715c1.033,0,1.495,0.861,1.495,1.715c0,0.853-0.462,1.714-1.495,1.714
				C123.116,38.07,122.653,37.208,122.653,36.355z M122.874,36.355c0,0.752,0.398,1.562,1.274,1.562s1.274-0.81,1.274-1.562
				s-0.398-1.562-1.274-1.562S122.874,35.603,122.874,36.355z"/>
		</g>
		<g>
			<g>
				<path d="M126.761,33.231c0,0.211,0,4.524,0,4.735c-0.074,0-0.112,0-0.187,0c0-0.211,0-4.524,0-4.735
					C126.648,33.231,126.687,33.231,126.761,33.231z"/>
			</g>
			<path d="M127.709,36.355c0-0.854,0.462-1.715,1.495-1.715s1.495,0.861,1.495,1.715c0,0.853-0.462,1.714-1.495,1.714
				S127.709,37.208,127.709,36.355z M127.929,36.355c0,0.752,0.398,1.562,1.274,1.562c0.875,0,1.273-0.81,1.273-1.562
				s-0.398-1.562-1.273-1.562C128.328,34.793,127.929,35.603,127.929,36.355z"/>
		</g>
		<g>
			<path d="M131.526,36.328c0-0.396,0.098-1.687,1.357-1.687c0.432,0,0.763,0.188,1.042,0.59l0.193,0.279l0.026-0.365
				c0,0,0.01-0.265,0.016-0.4c0.075,0,0.119,0,0.199,0c-0.003,0.063-0.028,0.663-0.028,0.663s0,2.137,0,2.171
				c0,0.691-0.029,1.264-0.664,1.561c-0.001,0-0.735,0.147-0.735,0.147c-0.275,0-1.107-0.074-1.214-0.702c0.112,0,0.205,0,0.25,0
				c0.108,0.333,0.453,0.55,1.02,0.55c0.557,0,1.142-0.398,1.158-1.064V37.42l-0.228-0.05c-0.169,0.343-0.588,0.583-1.019,0.583
				C132.039,37.954,131.526,37.346,131.526,36.328z M131.747,36.294c0,0.75,0.409,1.508,1.191,1.508c0.89,0,1.206-0.82,1.206-1.522
				c0-0.739-0.418-1.486-1.219-1.486C132.115,34.793,131.747,35.571,131.747,36.294z"/>
			<g>
				<path d="M138.089,34.744c-0.114,0.286-1.76,4.408-1.813,4.542c-0.059,0-0.112,0-0.21,0c0.096-0.241,0.461-1.165,0.461-1.165
					c0-0.074-1.088-2.706-1.366-3.377c0.115,0,0.19,0,0.257,0c0.054,0.135,1.238,3.076,1.238,3.076s1.176-2.94,1.23-3.076
					C137.944,34.744,137.994,34.744,138.089,34.744z"/>
			</g>
		</g>
	</g>
	<g>
		<path d="M84.189,24.89h0.113v-2.599c0-2.272,1.514-3.629,4.049-3.629c0,0,1.531,0.227,1.69,0.25c0,0.166,0,1.667,0,1.872
			c-0.131-0.01-0.341-0.025-0.341-0.025l-0.818-0.044c-1.483,0-2.287,0.305-2.287,1.915v2.261c0,0,2.862,0,3.072,0
			c0,0.185,0,1.342,0,1.526c-0.21,0-3.072,0-3.072,0s0,11.329,0,11.551c-0.197,0-2.097,0-2.294,0c0-0.222,0-11.551,0-11.551
			s-2.389,0-2.596,0c0-0.185,0-1.342,0-1.526C81.913,24.89,84.189,24.89,84.189,24.89z"/>
	</g>
	<g>
		<path d="M95.915,21.3c0,0.282,0,3.589,0,3.589s2.864,0,3.074,0c0,0.185,0,1.342,0,1.526c-0.21,0-3.074,0-3.074,0v8.723
			c0,0.921,0.688,1.517,1.755,1.517c0,0,0.989-0.118,1.214-0.145c0,0.208,0,1.534,0,1.706c-0.167,0.015-1.61,0.147-1.61,0.147
			c-3.653,0-3.653-1.631-3.653-3.357v-8.59c0,0-2.076,0-2.28,0c0-0.185,0-1.342,0-1.526l2.28,0.002c0,0,0-2.712,0-2.868
			C93.76,21.98,95.663,21.379,95.915,21.3z"/>
	</g>
	<path d="M49.726,19.059c8.286,0,8.93,7.237,8.93,9.456c0,2.217-0.644,9.453-8.93,9.453c0,0-6.242,0-6.46,0
		c0-0.222,0-18.686,0-18.908C43.484,19.059,49.726,19.059,49.726,19.059z M45.808,21.111h-0.113v14.804h4.032
		c3.989,0,6.371-2.767,6.371-7.4c0-4.636-2.381-7.403-6.371-7.403H45.808z"/>
</g>
</svg>
